<svg fill="none" height="96" viewBox="0 0 96 96" width="96" xmlns="http://www.w3.org/2000/svg"><g fill="#fff"><path clip-rule="evenodd" d="m48 93c24.8528 0 45-20.1472 45-45s-20.1472-45-45-45-45 20.1472-45 45 20.1472 45 45 45zm0 3c26.5097 0 48-21.4903 48-48s-21.4903-48-48-48-48 21.4903-48 48 21.4903 48 48 48z" fill-rule="evenodd"/><path d="m55.1167 19.2361c-.1148.5402-.6458.8851-1.186.7702-.5402-.1148-.8851-.6458-.7703-1.186.1149-.5402.6459-.8851 1.1861-.7703.5402.1149.8851.6459.7702 1.1861z"/><path d="m32.6729 25.5722c.4632-.3008.5948-.9201.294-1.3833s-.9201-.5949-1.3833-.2941-.5948.9202-.294 1.3834c.3008.4631.9201.5948 1.3833.294z"/><path d="m71.2258 33.7669c-.3008-.4632-.1691-1.0826.2941-1.3833.4632-.3008 1.0825-.1692 1.3833.294s.1691 1.0825-.2941 1.3833c-.4631.3008-1.0825.1691-1.3833-.294z"/><path d="m63.447 70.3635c-.4632.3008-.5949.9201-.2941 1.3833s.9202.5948 1.3834.294c.4631-.3008.5948-.9201.294-1.3833s-.9201-.5948-1.3833-.294z"/><path d="m25.6643 63.3549c.3008.4632.1691 1.0825-.294 1.3833-.4632.3008-1.0826.1691-1.3834-.2941-.3007-.4631-.1691-1.0825.2941-1.3833s1.0825-.1691 1.3833.2941z"/><path d="m42.5688 75.8647c.5402.1148.8851.6459.7702 1.1861-.1148.5402-.6458.885-1.186.7702s-.8851-.6458-.7703-1.1861c.1149-.5402.6459-.885 1.1861-.7702z"/><path d="m20.128 41.9581c.1148-.5403-.23-1.0713-.7702-1.1861-.5403-.1148-1.0713.23-1.1861.7702-.1148.5403.23 1.0713.7702 1.1861.5403.1148 1.0713-.23 1.1861-.7702z"/><path d="m76.8606 54.0169c-.1149.5403.23 1.0713.7702 1.1861s1.0712-.23 1.186-.7702c.1149-.5403-.23-1.0713-.7702-1.1861s-1.0712.23-1.186.7702z"/><g clip-rule="evenodd" fill-rule="evenodd"><path d="m47.9943 89.9875c23.196 0 42-18.804 42-42s-18.804-42-42-42c-23.1959 0-41.99998 18.804-41.99998 42s18.80408 42 41.99998 42zm6.7292-66.4962c1.838-.2409 3.4094-1.611 3.8168-3.5275.5167-2.431-1.0351-4.8206-3.4661-5.3373s-4.8205 1.0351-5.3373 3.4661c-.4073 1.9165.471 3.8073 2.0521 4.7749l-1.024 4.8174c-.9043-.1219-1.8273-.1849-2.765-.1849-3.8106 0-7.3784 1.0397-10.4352 2.851l-2.1583-3.3236c.9062-1.2961.9907-3.0646.0765-4.4724-1.2032-1.8528-3.6805-2.3793-5.5333-1.1762-1.8527 1.2032-2.3793 3.6805-1.1761 5.5333.9143 1.4078 2.5643 2.0499 4.1169 1.7492l2.2108 3.4044c-3.1775 2.5754-5.5695 6.082-6.7605 10.1045l-4.7279-1.0049c-.2409-1.838-1.6109-3.4094-3.5274-3.8168-2.431-.5167-4.8206 1.0351-5.3373 3.466-.5167 2.431 1.0351 4.8206 3.466 5.3373 1.9166.4074 3.8073-.4709 4.775-2.0521l4.7141 1.002c-.134.9469-.2033 1.9145-.2033 2.8983 0 3.8369 1.0541 7.4276 2.8885 10.4984l-3.269 2.1229c-1.2961-.9062-3.0646-.9908-4.4724-.0765-1.8528 1.2032-2.3793 3.6805-1.1762 5.5333 1.2032 1.8527 3.6805 2.3793 5.5333 1.1761 1.4078-.9143 2.0499-2.5643 1.7492-4.1169l3.3589-2.1813c2.6935 3.299 6.3942 5.7435 10.6329 6.8643l-.9692 4.5595c-1.838.2409-3.4094 1.6109-3.8168 3.5274-.5167 2.431 1.0351 4.8206 3.4661 5.3373s4.8205-1.0351 5.3372-3.466c.4074-1.9166-.4709-3.8073-2.052-4.775l.9845-4.6316c.7566.0846 1.5257.1281 2.305.1281 3.8591 0 7.4692-1.0664 10.5517-2.9205l2.1617 3.3288c-.9062 1.296-.9907 3.0645-.0765 4.4724 1.2032 1.8528 3.6805 2.3793 5.5333 1.1761 1.8527-1.2031 2.3793-3.6805 1.1761-5.5332-.9143-1.4079-2.5643-2.05-4.1169-1.7492l-2.225-3.4263c3.1827-2.6147 5.5639-6.1695 6.719-10.2398l5.6522 1.2014c.2409 1.838 1.611 3.4094 3.5275 3.8168 2.431.5167 4.8205-1.0351 5.3373-3.466.5167-2.431-1.0351-4.8206-3.4661-5.3373-1.9165-.4074-3.8073.4709-4.7749 2.0521l-5.6717-1.2056c.1137-.8738.1723-1.7649.1723-2.6697 0-3.3267-.7924-6.4684-2.1988-9.2465l3.4694-2.2531c1.2961.9063 3.0646.9908 4.4725.0765 1.8527-1.2032 2.3793-3.6805 1.1761-5.5332-1.2032-1.8528-3.6805-2.3793-5.5332-1.1762-1.4079.9143-2.05 2.5643-1.7493 4.1169l-3.384 2.1976c-2.651-3.7511-6.5301-6.5725-11.052-7.879z"/><path d="m48 66c9.9411 0 18-8.0589 18-18s-8.0589-18-18-18-18 8.0589-18 18 8.0589 18 18 18zm-11.9899-17.9873c0 .5545.2896 1.0196.5495 1.3655v-.0017l.0016.0034c1.3821 1.7975 3.3137 3.2722 5.1294 4.6576l.005.0033.4436.3393.1307.0993.3029.2351h.0017c.3197.2446.7193.361 1.1203.3264.4011-.0346.7748-.2177 1.048-.5135.1331-.1466.2341-.3193.2966-.5072.0624-.1879.085-.3868.0661-.5839s-.0787-.3881-.1756-.5608c-.097-.1726-.2289-.3231-.3874-.4418-.201-.157-.4043-.3124-.6084-.4684-.095-.0727-.1902-.1454-.2854-.2185l-.0114-.0088c-1.5191-1.1624-3.0603-2.3417-4.2573-3.7253 1.2071-1.4012 2.7133-2.5507 4.2343-3.7116l.0294-.0225c.084-.064.1681-.1279.2522-.1918.216-.1641.4321-.3283.6466-.4951.1583-.1188.29-.2694.3868-.442.0968-.1727.1566-.3636.1754-.5607.0188-.197-.0036-.3958-.0659-.5837s-.1632-.3607-.296-.5074c-.273-.296-.6465-.4794-1.0476-.5143s-.8008.0812-1.1207.3256l-.9037.6919-.0166.0132c-1.819 1.3821-3.6877 2.8039-5.093 4.6312h-.0016c-.2599.3459-.5495.8127-.5495 1.3672zm24 0c0 .5545-.2897 1.0196-.5495 1.3655v-.0017l-.0017.0034c-1.3821 1.7975-3.3137 3.2722-5.1294 4.6576l-.0049.0033-.8773.6737h-.0016c-.3198.2446-.7193.361-1.1204.3264s-.7748-.2177-1.0479-.5135c-.1331-.1466-.2342-.3193-.2966-.5072-.0625-.1879-.085-.3868-.0662-.5839.0189-.1971.0787-.3881.1757-.5608.0969-.1726.2289-.3231.3874-.4418.2009-.157.4042-.3124.6083-.4684.095-.0726.1902-.1454.2855-.2185l.0114-.0088c1.519-1.1624 3.0602-2.3418 4.2572-3.7253-1.2071-1.4012-2.7132-2.5507-4.2343-3.7116l-.0294-.0225h-.0033c-.0951-.0729-.1903-.1456-.2856-.2184-.2033-.1552-.407-.3107-.6098-.4685-.1586-.1188-.2906-.2695-.3875-.4423-.097-.1728-.1568-.3639-.1757-.5612-.0188-.1972.0037-.3962.0662-.5842.0625-.1881.1635-.361.2967-.5077.2733-.2955.6472-.4783 1.0482-.5126.4011-.0343.8005.0824 1.1201.3272.3058.2357.6126.4702.9202.7034 1.8191 1.3821 3.6878 2.8039 5.093 4.6312h.0017c.2598.3459.5495.8127.5495 1.3672z"/></g></g></svg>