<svg fill="none" height="128" viewBox="0 0 128 128" width="128" xmlns="http://www.w3.org/2000/svg" xmlns:xlink="http://www.w3.org/1999/xlink"><mask id="a" fill="#000" height="42" maskUnits="userSpaceOnUse" width="42" x="43" y="43"><path d="m43 43h42v42h-42z" fill="#fff"/><path clip-rule="evenodd" d="m64 82c9.9411 0 18-8.0589 18-18s-8.0589-18-18-18-18 8.0589-18 18 8.0589 18 18 18zm-11.9899-17.9873c0 .5545.2896 1.0196.5495 1.3655v-.0017l.0016.0034c1.3821 1.7975 3.3137 3.2722 5.1294 4.6576l.005.0033.4436.3393.1307.0993.3029.2351h.0017c.3197.2446.7193.361 1.1203.3264.4011-.0346.7748-.2177 1.048-.5135.1331-.1466.2341-.3193.2966-.5072.0624-.1879.085-.3868.0661-.5839s-.0787-.3881-.1756-.5608c-.097-.1726-.2289-.3231-.3874-.4418-.201-.157-.4043-.3124-.6084-.4684-.095-.0727-.1902-.1454-.2854-.2185l-.0114-.0088c-1.5191-1.1624-3.0603-2.3417-4.2573-3.7253 1.2071-1.4012 2.7133-2.5507 4.2343-3.7116l.0294-.0225c.084-.064.1681-.1279.2522-.1918.216-.1641.4321-.3283.6466-.4951.1583-.1188.29-.2694.3868-.4421.0968-.1726.1566-.3635.1754-.5606.0188-.197-.0036-.3958-.0659-.5837s-.1632-.3607-.296-.5074c-.273-.296-.6465-.4794-1.0476-.5143s-.8008.0812-1.1207.3256l-.9037.6919-.0166.0132c-1.819 1.3821-3.6877 2.8039-5.093 4.6312h-.0016c-.2599.3459-.5495.8127-.5495 1.3672zm24 0c0 .5545-.2897 1.0196-.5495 1.3655v-.0017l-.0017.0034c-1.3821 1.7975-3.3137 3.2722-5.1294 4.6576l-.0049.0033-.8773.6737h-.0016c-.3198.2446-.7193.361-1.1204.3264s-.7748-.2177-1.0479-.5135c-.1331-.1466-.2342-.3193-.2966-.5072-.0625-.1879-.085-.3868-.0662-.5839.0189-.1971.0787-.3881.1757-.5608.0969-.1726.2289-.3231.3874-.4418.2009-.157.4042-.3124.6083-.4684.095-.0726.1902-.1454.2855-.2185l.0114-.0088c1.519-1.1624 3.0602-2.3418 4.2572-3.7253-1.2071-1.4012-2.7132-2.5507-4.2343-3.7116l-.0294-.0225h-.0033c-.0951-.0729-.1903-.1456-.2856-.2183-.2033-.1553-.407-.3108-.6098-.4686-.1586-.1188-.2906-.2695-.3875-.4423-.097-.1728-.1568-.3639-.1757-.5612-.0188-.1972.0037-.3962.0662-.5842.0625-.1881.1635-.361.2967-.5077.2733-.2955.6472-.4783 1.0482-.5126.4011-.0343.8005.0824 1.1201.3272.3058.2357.6126.4702.9202.7034 1.8191 1.3821 3.6878 2.8039 5.093 4.6312h.0017c.2598.3459.5495.8127.5495 1.3672z" fill="#000" fill-rule="evenodd"/></mask><path d="m0 0h128v128h-128z" fill="#ff0f65"/><circle cx="64.0057" cy="64.0125" r="46.5" stroke="#fff" stroke-width="3"/><circle cx="64" cy="64" fill="#fff" r="42"/><path clip-rule="evenodd" d="m64 82c9.9411 0 18-8.0589 18-18s-8.0589-18-18-18-18 8.0589-18 18 8.0589 18 18 18zm-11.9899-17.9873c0 .5545.2896 1.0196.5495 1.3655v-.0017l.0016.0034c1.3821 1.7975 3.3137 3.2722 5.1294 4.6576l.005.0033.4436.3393.1307.0993.3029.2351h.0017c.3197.2446.7193.361 1.1203.3264.4011-.0346.7748-.2177 1.048-.5135.1331-.1466.2341-.3193.2966-.5072.0624-.1879.085-.3868.0661-.5839s-.0787-.3881-.1756-.5608c-.097-.1726-.2289-.3231-.3874-.4418-.201-.157-.4043-.3124-.6084-.4684-.095-.0727-.1902-.1454-.2854-.2185l-.0114-.0088c-1.5191-1.1624-3.0603-2.3417-4.2573-3.7253 1.2071-1.4012 2.7133-2.5507 4.2343-3.7116l.0294-.0225c.084-.064.1681-.1279.2522-.1918.216-.1641.4321-.3283.6466-.4951.1583-.1188.29-.2694.3868-.4421.0968-.1726.1566-.3635.1754-.5606.0188-.197-.0036-.3958-.0659-.5837s-.1632-.3607-.296-.5074c-.273-.296-.6465-.4794-1.0476-.5143s-.8008.0812-1.1207.3256l-.9037.6919-.0166.0132c-1.819 1.3821-3.6877 2.8039-5.093 4.6312h-.0016c-.2599.3459-.5495.8127-.5495 1.3672zm24 0c0 .5545-.2897 1.0196-.5495 1.3655v-.0017l-.0017.0034c-1.3821 1.7975-3.3137 3.2722-5.1294 4.6576l-.0049.0033-.8773.6737h-.0016c-.3198.2446-.7193.361-1.1204.3264s-.7748-.2177-1.0479-.5135c-.1331-.1466-.2342-.3193-.2966-.5072-.0625-.1879-.085-.3868-.0662-.5839.0189-.1971.0787-.3881.1757-.5608.0969-.1726.2289-.3231.3874-.4418.2009-.157.4042-.3124.6083-.4684.095-.0726.1902-.1454.2855-.2185l.0114-.0088c1.519-1.1624 3.0602-2.3418 4.2572-3.7253-1.2071-1.4012-2.7132-2.5507-4.2343-3.7116l-.0294-.0225h-.0033c-.0951-.0729-.1903-.1456-.2856-.2183-.2033-.1553-.407-.3108-.6098-.4686-.1586-.1188-.2906-.2695-.3875-.4423-.097-.1728-.1568-.3639-.1757-.5612-.0188-.1972.0037-.3962.0662-.5842.0625-.1881.1635-.361.2967-.5077.2733-.2955.6472-.4783 1.0482-.5126.4011-.0343.8005.0824 1.1201.3272.3058.2357.6126.4702.9202.7034 1.8191 1.3821 3.6878 2.8039 5.093 4.6312h.0017c.2598.3459.5495.8127.5495 1.3672z" fill="#fff" fill-rule="evenodd"/><path d="m52.5596 65.3782-1.9989 1.5015 4.4989 5.989v-7.4905zm0-.0017 2.2359-1.1182-4.7359 1.1182zm.0016.0034-2.2359 1.1182.1075.215.1465.1906zm5.1294 4.6576-1.5164 1.9876.0632.0482.0663.0442zm.005.0033 1.5189-1.9857-.0645-.0493-.0675-.045zm.4436.3393-1.5189 1.9857.0068.0052zm.1307.0993 1.5326-1.9751-.0102-.0079-.0103-.0078zm.3029.2351-1.5326 1.9751.6764.5249h.8562zm.0017 0 1.519-1.9857-.6724-.5143h-.8466zm1.1203.3264-.2148-2.4908zm1.048-.5135 1.8365 1.6962.0072-.0077.0071-.0078zm.2966-.5072 2.3723.7886zm.0661-.5839 2.4886-.2381zm-.563-1.0026-1.5387 1.9703.0199.0155.0201.0152zm-.6084-.4684-1.5183 1.9861zm-.2854-.2185 1.5227-1.9828-.0032-.0025zm-.0114-.0088 1.5195-1.9852-.0003-.0002zm-4.2573-3.7253-1.8941-1.6317-1.4087 1.6351 1.4122 1.6323zm4.2343-3.7116-1.5168-1.9873zm.0294-.0225-1.5157-1.9881-.001.0008zm.2522-.1918-1.5123-1.9907h-.0001zm.6466-.4951-1.5012-1.9991-.017.0127-.0167.013zm.5622-1.0027 2.4886.2381zm-.0659-.5837-2.3729.7871zm-.296-.5074 1.8529-1.6782-.0074-.0083-.0076-.0082zm-2.1683-.1887-1.5176-1.9867-.0021.0017zm-.9037.6919-1.5197-1.9851-.0213.0163-.0209.0167zm-.0166.0132 1.5124 1.9907.025-.019.0244-.0196zm-5.093 4.6312v2.5h1.2313l.7505-.976zm-.0016 0v-2.5h-1.2488l-.7501.9985zm22.901 2.7327h-2.5v7.4904l4.4988-5.9889zm0-.0017h2.5l-4.7366-1.117zm-.0017.0034 1.9819 1.5238.147-.1911.1077-.2157zm-5.1294 4.6576 1.3868 2.0801.0663-.0442.0634-.0483zm-.0049.0033-1.3868-2.0801-.0696.0464-.0663.0509zm-.8773.6737v2.5h.8492l.6735-.5172zm-.0016 0v-2.5h-.8466l-.6724.5143zm-1.1204.3264.2149-2.4908h-.0001zm-1.0479-.5135-1.8508 1.6807.0071.0078.0071.0077zm-.2966-.5072 2.3723-.7887zm-.0662-.5839-2.4886-.2381zm.1757-.5608 2.1798 1.2241zm.3874-.4418 1.4986 2.001.0202-.0152.0198-.0155zm.6083-.4684 1.5183 1.9862zm.2855-.2185-1.5193-1.9855-.0034.0027zm.0114-.0088-1.5193-1.9854zm4.2572-3.7253 1.8907 1.6357 1.4121-1.6323-1.4087-1.6351zm-4.2343-3.7116 1.5168-1.9873zm-.0294-.0225 1.5168-1.9873-.6717-.5127h-.8451zm-.0033 0-1.5211 1.984.673.516h.8481zm-.2856-.2183 1.5172-1.9871zm-.6098-.4686 1.5348-1.9734-.0175-.0136-.0177-.0132zm-.3875-.4423 2.1802-1.2234zm-.1095-1.1454-2.3725-.7884v.0001zm.2967-.5077-1.8352-1.6977-.0081.0088-.0081.0089zm2.1683-.1854 1.5259-1.9803-.0056-.0043zm.9202.7034 1.5125-1.9906-.002-.0015zm5.093 4.6312-1.9818 1.524.7506.976h1.2312zm.0017 0 1.9988-1.5015-.75-.9985h-1.2488zm4.0394 1.3545c0 8.5604-6.9396 15.5-15.5 15.5v5c11.3218 0 20.5-9.1782 20.5-20.5zm-15.5-15.5c8.5604 0 15.5 6.9396 15.5 15.5h5c0-11.3218-9.1782-20.5-20.5-20.5zm-15.5 15.5c0-8.5604 6.9396-15.5 15.5-15.5v-5c-11.3218 0-20.5 9.1782-20.5 20.5zm15.5 15.5c-8.5604 0-15.5-6.9396-15.5-15.5h-5c0 11.3218 9.1782 20.5 20.5 20.5zm-9.4416-15.6233c-.0381-.0509-.0632-.0872-.0802-.1143-.017-.0268-.0209-.0364-.0182-.0305.0055.0121.0501.1146.0501.2808h-5c0 1.4128.729 2.4388 1.0506 2.867zm-4.4988 1.4998v.0017h5v-.0017zm4.7376-1.1149-.0017-.0033-4.4719 2.2365.0017.0033zm4.4099 3.7884c-1.8708-1.4274-3.5199-2.706-4.664-4.194l-3.9638 3.0477c1.6201 2.1071 3.8342 3.778 5.5949 5.1214zm-.1246-.0892-.0049-.0033-2.7739 4.16.005.0033zm.5756.4336-.4436-.3393-3.0378 3.9714.4436.3393zm.1239.0942-.1308-.0994-3.0241 3.9818.1308.0993zm.3234.2508-.3029-.2351-3.0652 3.9503.3029.235zm-1.5309-.5249h-.0017v5h.0017zm.9055.3356c.2196-.0189.4384.0448.6135.1787l-3.038 3.9713c.8146.6231 1.8324.9197 2.8542.8315zm-.5738.2812c.1496-.162.3542-.2622.5738-.2812l.4297 4.9815c1.0218-.0881 1.9738-.5546 2.6696-1.308zm-.2392.4002c.0474-.1425.124-.2735.2249-.3847l3.7017 3.3613c.3672-.4044.6458-.881.8181-1.3993zm-.0501.4428c-.0143-.1495.0027-.3003.0501-.4428l4.7447 1.5773c.1723-.5183.2344-1.0669.1824-1.6106zm.1331.4253c-.0735-.131-.1188-.2758-.1331-.4253l4.9772-.4761c-.052-.5437-.217-1.0705-.4844-1.5468zm.2938.3351c-.1202-.0901-.2202-.2042-.2938-.3351l4.3597-2.4482c-.2674-.4762-.6314-.8913-1.0685-1.2187zm-.628-.4833c.2058.1574.3989.3049.588.4526l3.0774-3.9407c-.2129-.1663-.4265-.3295-.6288-.4842zm-.2898-.2219c.0978.0751.1951.1496.2898.2219l3.0366-3.9723c-.0954-.0729-.1884-.144-.281-.2151zm-.0082-.0063.0114.0088 3.039-3.9705-.0114-.0087zm-4.6284-4.0748c1.3949 1.6124 3.1527 2.9456 4.6286 4.075l3.0385-3.9708c-1.5622-1.1954-2.8868-2.2209-3.8859-3.3756zm4.6081-7.3346c-1.4812 1.1305-3.2048 2.4342-4.6116 4.0672l3.7882 3.2634c1.0074-1.1694 2.2961-2.1647 3.857-3.356zm.0295-.0225-.0295.0225 3.0336 3.9746.0294-.0225zm.2565-.1952c-.0838.0637-.1696.1289-.2555.1944l3.0315 3.9762c.082-.0625.1643-.1251.2487-.1892zm.6241-.4778c-.2013.1567-.4062.3123-.624.4778l3.0246 3.9814c.2142-.1627.4416-.3354.6691-.5124zm-.2589.3087c.0732-.1306.1729-.2445.2926-.3344l3.0024 3.9982c.4363-.3276.7994-.7426 1.0662-1.2185zm-.1326.424c.0142-.149.0594-.2935.1326-.424l4.3612 2.4453c.2668-.4758.4315-1.0021.4834-1.5452zm.0498.4414c-.0471-.1421-.0641-.2924-.0498-.4414l4.9772.4761c.052-.5431-.0099-1.0911-.1817-1.6089zm.2239.3838c-.1005-.111-.1767-.2417-.2239-.3838l4.7457-1.5742c-.1717-.5178-.4496-.9942-.8159-1.3985zm.5886.298c-.2196-.0191-.4242-.1195-.5736-.2816l3.6759-3.3894c-.6952-.754-1.647-1.2212-2.6688-1.3102zm.6137-.1783c-.1752.1338-.3941.1974-.6137.1783l.4335-4.9812c-1.0218-.0889-2.0399.2069-2.855.8295zm-.9016.6903.9037-.6919-3.0394-3.9701-.9037.6918zm.0255-.0198.0166-.0132-3.1237-3.9042-.0165.0132zm-4.673 4.2031c1.1676-1.5182 2.7576-2.7468 4.6236-4.1645l-3.0248-3.9813c-1.7721 1.3464-3.9194 2.9614-5.5623 5.0978zm-1.9834.976h.0016v-5h-.0016zm1.9505-1.1328c0 .1657-.0443.2673-.0494.2784-.0025.0055.0015-.0042.0184-.031.0169-.0269.0418-.063.0793-.1131l-3.9977-3.003c-.3235.4307-1.0506 1.4575-1.0506 2.8687zm22.9493 2.867c.3217-.4282 1.0507-1.4542 1.0507-2.867h-5c0-.1662.0445-.2687.0501-.2808.0027-.0059-.0013.0037-.0182.0305-.0171.027-.0421.0634-.0803.1143zm-4.4988-1.5032v.0017h5v-.0017zm4.7349 1.1204.0016-.0033-4.4731-2.2341-.0017.0034zm-5.8495 5.5282c1.7607-1.3434 3.9747-3.0143 5.5948-5.1214l-3.9638-3.0477c-1.1441 1.488-2.7932 2.7666-4.664 4.194zm-.1347.0958.005-.0033-2.7735-4.1602-.005.0033zm-.7413.5764.8772-.6737-3.0453-3.9656-.8772.6737zm-1.5243.5172h.0016v-5h-.0016zm-1.3353.3171c1.0218.0882 2.0397-.2084 2.8542-.8315l-3.0379-3.9713c.1751-.1339.3938-.1976.6135-.1787zm-2.6696-1.308c.6958.7534 1.6479 1.2199 2.6697 1.308l.4296-4.9815c.2197.019.4243.1192.5738.2812zm-.8324-1.4148c.1723.5183.451.9949.8182 1.3993l3.7016-3.3613c.101.1112.1776.2422.2249.3847zm-.1824-1.6106c-.052.5437.0101 1.0923.1824 1.6106l4.7447-1.5773c.0474.1425.0645.2933.0502.4428zm.4844-1.5468c-.2674.4763-.4324 1.0031-.4844 1.5468l4.9773.4761c-.0143.1495-.0597.2943-.1332.4253zm1.0686-1.2187c-.4372.3274-.8011.7425-1.0686 1.2188l4.3597 2.4481c-.0735.1309-.1736.245-.2938.3351zm.5887-.4535c-.2023.1546-.4159.3178-.6287.4841l3.0773 3.9407c.1892-.1476.3822-.2952.588-.4525zm.2811-.2152c-.0927.0711-.1857.1422-.2812.2152l3.0367 3.9723c.0946-.0724.1921-.1469.2898-.222zm.0148-.0114-.0114.0087 3.0385 3.9709.0115-.0088zm3.8859-3.3756c-.999 1.1547-2.3237 2.1802-3.8859 3.3756l3.0386 3.9708c1.4758-1.1294 3.2336-2.4626 4.6286-4.075zm-3.8604-.0886c1.5608 1.1913 2.8495 2.1866 3.857 3.356l3.7881-3.2634c-1.4068-1.633-3.1304-2.9367-4.6116-4.0672zm-.0295-.0225.0295.0225 3.0335-3.9746-.0294-.0225zm1.5135.5127h.0033v-5h-.0033zm-1.8028-.7313c.0957.073.1889.1442.2817.2153l3.0422-3.968c-.0974-.0746-.1946-.1489-.2895-.2214zm-.6275-.4822c.2131.1658.4257.328.6275.4822l3.0344-3.9741c-.2049-.1564-.3996-.3051-.5922-.4549zm-1.0328-1.1922c.2673.4762.631.8915 1.068 1.2191l2.9993-4.0005c.1199.0899.2197.2038.2931.3345zm-.4841-1.5468c.0519.5437.2168 1.0705.4841 1.5468l4.3604-2.4469c.0733.1307.1185.2752.1328.4244zm.1823-1.6104c-.1722.5182-.2343 1.0668-.1823 1.6104l4.9773-.4757c.0143.1491-.0028.2997-.05.4419zm.8178-1.3994c-.367.4044-.6455.881-.8178 1.3993l4.745 1.5767c-.0473.1422-.1237.273-.2244.384zm2.6867-1.3235c-1.0218.0873-1.9741.553-2.6705 1.3058l3.6704 3.3954c-.1497.1618-.3544.2618-.574.2806zm2.8533.8335c-.814-.6236-1.8316-.9209-2.8533-.8335l.4259 4.9818c-.2196.0188-.4383-.0451-.6133-.1791zm.9104.6959c-.3025-.2293-.6041-.4599-.9048-.6916l-3.0519 3.9605c.311.2397.6229.4781.9358.7154zm5.5643 5.0993c-1.6429-2.1364-3.7903-3.7514-5.5623-5.0978l-3.0249 3.9813c1.866 1.4177 3.4561 2.6463 4.6236 4.1645zm-1.9801-.976h-.0017v5h.0017zm3.0495 3.8672c0-1.4112-.7271-2.438-1.0507-2.8687l-3.9977 3.003c.0376.0501.0624.0862.0794.1131.0168.0268.0209.0365.0184.031-.0051-.0111-.0494-.1127-.0494-.2784z" fill="#ff0f65" mask="url(#a)"/><circle cx="70.1443" cy="35.0407" r="2.75" stroke="#ff0f65" stroke-width="3.5" transform="matrix(.9781476 .20791169 -.20791169 .9781476 8.818192 -13.818097)"/><path d="m67.9494 38.1523h3v7h-3z" fill="#ff0f65" transform="matrix(.9781476 .20791169 -.20791169 .9781476 9.417167 -13.293755)"/><circle cx="48.134" cy="40.746" r="2.5" stroke="#ff0f65" stroke-width="3" transform="matrix(.83867057 -.54463904 .54463904 .83867057 -14.426431 32.789184)"/><path d="m48.5099 44.079h3v5h-3z" fill="#ff0f65" transform="matrix(.83867057 -.54463904 .54463904 .83867057 -16.181069 33.531625)"/><circle r="2.5" stroke="#ff0f65" stroke-width="3" transform="matrix(-.544639 -.838671 -.838671 .544639 88.0702 49.2347)"/><path d="m0 0h3v5h-3z" fill="#ff0f65" transform="matrix(-.544639 -.838671 -.838671 .544639 86.3712 52.1266)"/><circle cx="79.9973" cy="87.2147" r="2.5" stroke="#ff0f65" stroke-width="3" transform="matrix(-.83867057 .54463904 -.54463904 -.83867057 194.589211 116.78945)"/><path d="m79.6214 83.8817h3v5h-3z" fill="#ff0f65" transform="matrix(-.83867057 .54463904 -.54463904 -.83867057 192.082773 110.865891)"/><circle r="2.5" stroke="#ff0f65" stroke-width="3" transform="matrix(.544639 .838671 .838671 -.544639 40.8313 79.912)"/><path d="m0 0h3v5h-3z" fill="#ff0f65" transform="matrix(.544639 .838671 .838671 -.544639 42.5304 77.0201)"/><circle r="2.75" stroke="#ff0f65" stroke-width="3.5" transform="matrix(.978148 .207912 .207912 -.978148 58.3666 92.8554)"/><path d="m0 0h3v7h-3z" fill="#ff0f65" transform="matrix(.978148 .207912 .207912 -.978148 57.627 89.12)"/><circle cx="35.1555" cy="57.7626" r="2.75" stroke="#ff0f65" stroke-width="3.5" transform="matrix(.20791169 -.9781476 .9781476 .20791169 -28.654088 80.140348)"/><path d="m38.2672 59.9576h3v7h-3z" fill="#ff0f65" transform="matrix(.20791169 -.9781476 .9781476 .20791169 -28.336381 84.922684)"/><circle cx="93.8444" cy="70.2374" r="2.75" stroke="#ff0f65" stroke-width="3.5" transform="matrix(-.20791169 .9781476 -.9781476 -.20791169 182.058292 -6.953098)"/><path d="m90.7327 68.0424h3v7h-3z" fill="#ff0f65" transform="matrix(-.20791169 .9781476 -.9781476 -.20791169 176.152599 -6.560762)"/></svg>