<svg fill="none" height="29" viewBox="0 0 256 29" width="256" xmlns="http://www.w3.org/2000/svg" xmlns:xlink="http://www.w3.org/1999/xlink"><clipPath id="a"><path d="m0 .082764h256v28.167h-256z"/></clipPath><g clip-path="url(#a)"><path clip-rule="evenodd" d="m20.312.975244v3.569596c0 .23264-.1552.38752-.3878.38752h-15.31172v7.29444h12.63742c.2327 0 .3872.1555.3872.3881v3.5696c0 .2327-.1545.3879-.3872.3879h-12.63742v10.7856c0 .2329-.15424.3878-.3872.3878h-3.83808c-.23232-.0003-.3872-.1552-.3872-.3882v-26.382036c0-.23264.15488-.38816.3872-.38816h19.537c.2326 0 .3878.15552.3878.38816zm23.1216 15.286056c-1.4144-3.9184-2.984-7.8371-4.5936-11.4067h-.9104c-1.609 3.5696-3.1981 7.4883-4.6128 11.4067zm8.1213 11.4842h-4.2253c-.2326 0-.3872-.1168-.4454-.3495-.5919-2.3374-1.2643-4.6536-2.016-6.9446h-12.9664c-.7751 2.367-1.4541 4.7136-1.9968 6.9446-.0576.2327-.2128.3495-.4452.3495h-4.0704c-.2713 0-.4265-.1552-.3488-.4266 2.442-8.6521 6.1632-18.19613 9.9232-26.22718.1748-.368956.3879-.504316.7562-.504316h5.504c.3683 0 .5818.13536.7562.504316 3.799 8.01152 7.4624 17.57508 9.9235 26.22718.0778.2714-.0774.4266-.3488.4266zm6.9379-13.3463c0-8.41916 5.5431-14.3164363 13.4509-14.3164363h.5811c4.9623 0 8.8 2.5219163 10.8346 6.1689563.1357.23264.0966.42688-.1357.54304l-3.4112 1.68769c-.2323.11648-.5235.11648-.6784-.1744-1.4336-2.48321-3.5856-3.80225-6.7642-3.80225h-.5814c-4.9811 0-8.4115 3.95744-8.4115 9.6995 0 5.761 3.3725 9.6218 8.4115 9.6218h.5814c3.2564 0 5.1559-1.1059 6.6093-2.7936.1939-.2135.4071-.2519.6397-.1357l3.5078 1.7072c.1357.0771.1936.1741.1936.271 0 .0976-.0384.1751-.1158.2912-2.151 3.1424-6.0278 5.0826-10.7568 5.0826h-.5814c-8.0439 0-13.3735-5.5286-13.3735-13.8506zm55.7412 9.3892v3.5692c0 .233-.155.3879-.388.3879h-20.3506c-.2327 0-.3879-.1549-.3879-.3879v-26.382036c0-.23264.1552-.38816.3879-.38816h20.0016c.233 0 .388.15552.388.38816v3.569596c0 .23264-.155.38752-.388.38752h-15.7767v7.06112h12.8307c.233 0 .388.1552.388.3882v3.5305c0 .2327-.155.3882-.388.3882h-12.8307v7.0998h16.1257c.233 0 .388.1549.388.3882zm30.312-3.8996c0-2.5216-1.667-3.6665-5.33-3.6665h-9.129v7.2941h9.129c3.722 0 5.33-1.0864 5.33-3.6276zm-6.629-15.07324h-7.83v7.29404h7.83c3.509 0 5.117-1.1443 5.117-3.64668 0-2.50272-1.608-3.64736-5.117-3.64736zm11.358 15.48034c0 4.7526-3.644 7.4496-10.078 7.4496h-13.335c-.233 0-.388-.1555-.388-.3879v-26.382036c0-.2336.155-.38848.388-.38848h12.152c6.261 0 9.672 2.483196 9.672 7.022716 0 2.9872-1.512 4.9466-4.574 5.8582 4.302.9117 6.163 3.4919 6.163 6.8282zm22.657 3.5312c5.562 0 9.07-3.8218 9.07-9.6608 0-5.83873-3.508-9.66082-9.07-9.66082h-.582c-5.563 0-9.071 3.82209-9.071 9.66082 0 5.839 3.508 9.6608 9.071 9.6608zm-14.536-9.6608c0-8.18626 5.426-14.0832163 13.954-14.0832163h.582c8.528 0 13.954 5.8969563 13.954 14.0832163 0 8.1862-5.427 14.0835-13.955 14.0835h-.581c-8.528 0-13.954-5.8973-13.954-14.0832zm50.895 9.6608c5.562 0 9.07-3.8218 9.07-9.6608 0-5.83873-3.508-9.66082-9.07-9.66082h-.582c-5.562 0-9.07 3.82209-9.07 9.66082 0 5.839 3.508 9.6608 9.07 9.6608zm-14.536-9.6608c0-8.18626 5.427-14.0832163 13.954-14.0832163h.582c8.528 0 13.955 5.8969563 13.955 14.0832163 0 8.1862-5.427 14.0835-13.955 14.0835h-.582c-8.527 0-13.954-5.8973-13.954-14.0832zm61.923 13.5792h-5c-.33 0-.465-.0778-.679-.3296-3.507-4.1319-7.656-8.2445-11.183-11.2711h-2.248v11.2128c0 .233-.155.3879-.388.3879h-3.838c-.232 0-.387-.1549-.387-.3879v-26.382036c0-.23264.155-.38816.387-.38816h3.838c.233 0 .388.15552.388.38816v10.708136h2.287c3.78-3.41438 7.268-7.10014 10.117-10.805096.194-.25248.349-.2912.582-.2912h4.729c.233 0 .348.11648.348.272 0 .07744-.038.174396-.135.290876-4.167 5.14048-8.295 9.35042-12.114 12.60932 4.864 4.1246 9.382 8.64 13.51 13.5011.212.2525.096.4851-.214.4851" fill="#ffffff" fill-rule="evenodd"/></g></svg>
